# xmcd CD database file
#
# Track frame offsets:
#	150
#	10025
#	23513
#	35957
#	45161
#	57917
#	67859
#	80470
#	95144
#	107741
#	118959
#	128677
#	139796
#	152122
#	164632
#	176611
#	187234
#	202260
#	212579
#	223350
#
# Disc length: 3098 seconds
#
# Revision: 0
# Processed by: cddbd v1.5.1PL2 Copyright (c) Steve Scherf et al.
# Submitted via: CDex 1.50
#
DISCID=290c1814
DTITLE=Various Artist - Best of Country ladies CD 3
DYEAR=2002
DGENRE=Country
TTITLE0=Patsy Cline - Turn The Cards Slowly
TTITLE1=Barbara Fairchild - Crazy Love
TTITLE2=Lynn Anderson - Stand By Your Man 
TTITLE3=Marilyn Monroe - One Silver Dollar
TTITLE4=Lynn Anderson - Top Of The World
TTITLE5=Barbara Mandrell - Do Right Woman, Do Right Man
TTITLE6=Anne Murray - Just Fall In Love Again
TTITLE7=Tammy Wynette - Till I Can Make it On My Own
TTITLE8=Tina Turner - It's Alright With You
TTITLE9=Tanya Tucker - Pecos Promenade
TTITLE10=Connie Smith - I'm Only In It For Love
TTITLE11=Patsy Cline - Don't Evwer Leave Me Again
TTITLE12=Lynn Anderson - I Never Promised You A Rose Garden
TTITLE13=Patsy Cline - Fingerprints
TTITLE14=Dolly Parton - Little Orphans
TTITLE15=Patsy Cline - Gotta Lot Of Rhythm
TTITLE16=Olivia Newton-John - Take Me Home Country Roads
TTITLE17=Patsy Cline - I Love You Honey
TTITLE18=Barbara Mandrell - Bread Me Mind
TTITLE19=Dorsey Burnette - Together Again
EXTD=YEAR: 2002
EXTT0=
EXTT1=
EXTT2=
EXTT3=
EXTT4=
EXTT5=
EXTT6=
EXTT7=
EXTT8=
EXTT9=
EXTT10=
EXTT11=
EXTT12=
EXTT13=
EXTT14=
EXTT15=
EXTT16=
EXTT17=
EXTT18=
EXTT19=
PLAYORDER=
